<mxfile host="app.diagrams.net" modified="2023-06-12T06:37:51.369Z" agent="Mozilla/5.0 (Macintosh; Intel Mac OS X 10_15_7) AppleWebKit/537.36 (KHTML, like Gecko) Chrome/113.0.0.0 Safari/537.36" etag="r6c3D1Nt_R5RpG5l8vCC" version="21.3.8" type="github">
  <diagram name="Page-1" id="9f46799a-70d6-7492-0946-bef42562c5a5">
    <mxGraphModel dx="1793" dy="913" grid="1" gridSize="10" guides="1" tooltips="1" connect="1" arrows="1" fold="1" page="1" pageScale="1" pageWidth="1600" pageHeight="900" background="none" math="0" shadow="0">
      <root>
        <mxCell id="0" />
        <mxCell id="1" parent="0" />
        <mxCell id="xxVMOKm8zRHz8Rg9-nGw-23" value="Player presenter layer?" style="shape=module;align=left;spacingLeft=20;align=center;verticalAlign=top;whiteSpace=wrap;html=1;" vertex="1" parent="1">
          <mxGeometry x="70" y="180" width="390" height="530" as="geometry" />
        </mxCell>
        <mxCell id="xxVMOKm8zRHz8Rg9-nGw-22" value="PlayerView" style="shape=module;align=left;spacingLeft=20;align=center;verticalAlign=top;whiteSpace=wrap;html=1;" vertex="1" parent="1">
          <mxGeometry x="540" y="20" width="360" height="335" as="geometry" />
        </mxCell>
        <mxCell id="xxVMOKm8zRHz8Rg9-nGw-20" value="PlayerConfiguration" style="shape=module;align=left;spacingLeft=20;align=center;verticalAlign=top;whiteSpace=wrap;html=1;" vertex="1" parent="1">
          <mxGeometry x="540" y="450" width="510" height="455" as="geometry" />
        </mxCell>
        <mxCell id="xxVMOKm8zRHz8Rg9-nGw-7" value="&lt;p style=&quot;margin:0px;margin-top:4px;text-align:center;&quot;&gt;&lt;i&gt;&amp;lt;&amp;lt;Interface&amp;gt;&amp;gt;&lt;/i&gt;&lt;br&gt;&lt;b&gt;&lt;font style=&quot;font-size: 14px;&quot;&gt;MediaItemFactory&amp;lt;T&amp;gt;&lt;/font&gt;&lt;/b&gt;&lt;/p&gt;&lt;hr size=&quot;1&quot;&gt;&lt;div style=&quot;border-color: var(--border-color);&quot;&gt;+ fun isTypeMatch(type: Class&amp;lt;out T&amp;gt;): Boolean&lt;/div&gt;&lt;div style=&quot;border-color: var(--border-color);&quot;&gt;+ fun createMediaItem(item: T): MediaItem&lt;/div&gt;" style="verticalAlign=top;align=left;overflow=fill;fontSize=12;fontFamily=Helvetica;html=1;whiteSpace=wrap;" vertex="1" parent="1">
          <mxGeometry x="580" y="685" width="260" height="90" as="geometry" />
        </mxCell>
        <mxCell id="xxVMOKm8zRHz8Rg9-nGw-8" value="&lt;p style=&quot;margin:0px;margin-top:4px;text-align:center;&quot;&gt;&lt;i&gt;&amp;lt;&amp;lt;Interface&amp;gt;&amp;gt;&lt;/i&gt;&lt;br&gt;&lt;/p&gt;&lt;p style=&quot;margin:0px;margin-top:4px;text-align:center;&quot;&gt;&lt;i&gt;&lt;b&gt;&lt;font style=&quot;font-size: 14px;&quot;&gt;PlayerInterface&lt;/font&gt;&lt;/b&gt;&lt;/i&gt;&lt;/p&gt;&lt;hr size=&quot;1&quot;&gt;&lt;div style=&quot;border-color: var(--border-color);&quot;&gt;+&amp;nbsp;fun release()&lt;br style=&quot;border-color: var(--border-color);&quot;&gt;+ fun trackPlayerEvent(listener: Player.Listener)&lt;br style=&quot;border-color: var(--border-color);&quot;&gt;+&amp;nbsp;fun trackPlayerAnalyticsEvent(listener: AnalyticsListener)&lt;br style=&quot;border-color: var(--border-color);&quot;&gt;+&amp;nbsp;fun removePlayerEvent(listener: Player.Listener)&lt;br style=&quot;border-color: var(--border-color);&quot;&gt;+&amp;nbsp;fun removePlayerAnalyticsEvent(listener: AnalyticsListener)&lt;br&gt;&lt;/div&gt;" style="verticalAlign=top;align=left;overflow=fill;fontSize=12;fontFamily=Helvetica;html=1;whiteSpace=wrap;" vertex="1" parent="1">
          <mxGeometry x="121" y="210" width="300" height="160" as="geometry" />
        </mxCell>
        <mxCell id="xxVMOKm8zRHz8Rg9-nGw-9" value="&lt;p style=&quot;margin:0px;margin-top:4px;text-align:center;&quot;&gt;&lt;i&gt;&amp;lt;&amp;lt;Interface&amp;gt;&amp;gt;&lt;/i&gt;&lt;br&gt;&lt;/p&gt;&lt;p style=&quot;margin:0px;margin-top:4px;text-align:center;&quot;&gt;&lt;i&gt;&lt;b&gt;&lt;font style=&quot;font-size: 14px;&quot;&gt;PlayerHandler&lt;/font&gt;&lt;/b&gt;&lt;/i&gt;&lt;/p&gt;&lt;hr size=&quot;1&quot;&gt;&lt;div style=&quot;border-color: var(--border-color);&quot;&gt;&lt;div style=&quot;border-color: var(--border-color);&quot;&gt;+ fun getPlayerBuildFactory(): PlayerBuildFactory&lt;/div&gt;&lt;div style=&quot;border-color: var(--border-color);&quot;&gt;+ fun getPlayerView(): StyledPlayerView?&lt;/div&gt;&lt;div style=&quot;border-color: var(--border-color);&quot;&gt;+ fun getPlayerHolder(): PlayerHolder&lt;/div&gt;&lt;div style=&quot;border-color: var(--border-color);&quot;&gt;+ fun getPlayerDataStore(): PlayerDataStore?&lt;/div&gt;&lt;div style=&quot;border-color: var(--border-color);&quot;&gt;+ fun createNewPlayer(context: Context): Player&lt;/div&gt;&lt;/div&gt;" style="verticalAlign=top;align=left;overflow=fill;fontSize=12;fontFamily=Helvetica;html=1;whiteSpace=wrap;" vertex="1" parent="1">
          <mxGeometry x="121" y="410" width="300" height="150" as="geometry" />
        </mxCell>
        <mxCell id="xxVMOKm8zRHz8Rg9-nGw-11" value="&lt;p style=&quot;margin:0px;margin-top:4px;text-align:center;&quot;&gt;&lt;i&gt;&amp;lt;&amp;lt;Interface&amp;gt;&amp;gt;&lt;/i&gt;&lt;br&gt;&lt;b&gt;PlayerBuildFactory&lt;/b&gt;&lt;/p&gt;&lt;hr size=&quot;1&quot;&gt;&lt;p style=&quot;margin:0px;margin-left:4px;&quot;&gt;+ var dataSourceFactory: DataSource.Factory?&lt;/p&gt;&lt;p style=&quot;margin:0px;margin-left:4px;&quot;&gt;+ var mediaSourceFactory: MediaSource.Factory?&lt;/p&gt;&lt;p style=&quot;margin:0px;margin-left:4px;&quot;&gt;+ var loadControl: LoadControl?&lt;/p&gt;&lt;p style=&quot;margin:0px;margin-left:4px;&quot;&gt;+ var renderersFactory: RenderersFactory?&lt;/p&gt;&lt;p style=&quot;margin:0px;margin-left:4px;&quot;&gt;+ var trackSelector: TrackSelector?&lt;/p&gt;&lt;p style=&quot;margin:0px;margin-left:4px;&quot;&gt;+ var bandwidthMeter: BandwidthMeter?&lt;/p&gt;&lt;hr size=&quot;1&quot;&gt;&lt;p style=&quot;margin:0px;margin-left:4px;&quot;&gt;+ fun ExoPlayer.Builder.configurePlayerBuilder(context: Context)&lt;br&gt;+ fun createNewPlayer(context: Context, builder: ExoPlayer.Builder): ExoPlayer&lt;/p&gt;" style="verticalAlign=top;align=left;overflow=fill;fontSize=12;fontFamily=Helvetica;html=1;whiteSpace=wrap;" vertex="1" parent="1">
          <mxGeometry x="580" y="485" width="440" height="190" as="geometry" />
        </mxCell>
        <mxCell id="xxVMOKm8zRHz8Rg9-nGw-12" value="&lt;p style=&quot;margin:0px;margin-top:4px;text-align:center;&quot;&gt;&lt;i&gt;&amp;lt;&amp;lt;Interface&amp;gt;&amp;gt;&lt;/i&gt;&lt;br&gt;&lt;b&gt;PlayerHolder&lt;/b&gt;&lt;/p&gt;&lt;hr size=&quot;1&quot;&gt;&lt;p style=&quot;margin:0px;margin-left:4px;&quot;&gt;+ fun tryGetPlayerView(): StyledPlayerView?&lt;/p&gt;&lt;p style=&quot;margin:0px;margin-left:4px;&quot;&gt;+ fun tryGetPlayer(): Player?&lt;/p&gt;&lt;p style=&quot;margin:0px;margin-left:4px;&quot;&gt;+ fun release()&lt;/p&gt;" style="verticalAlign=top;align=left;overflow=fill;fontSize=12;fontFamily=Helvetica;html=1;whiteSpace=wrap;" vertex="1" parent="1">
          <mxGeometry x="121" y="600" width="300" height="100" as="geometry" />
        </mxCell>
        <mxCell id="xxVMOKm8zRHz8Rg9-nGw-14" value="TubiPlayerView" style="swimlane;fontStyle=1;align=center;verticalAlign=top;childLayout=stackLayout;horizontal=1;startSize=26;horizontalStack=0;resizeParent=1;resizeParentMax=0;resizeLast=0;collapsible=1;marginBottom=0;whiteSpace=wrap;html=1;" vertex="1" parent="1">
          <mxGeometry x="575" y="55" width="290" height="170" as="geometry" />
        </mxCell>
        <mxCell id="xxVMOKm8zRHz8Rg9-nGw-15" value="&lt;div&gt;- var playerAttachListener: OnPlayerAttachListener?&lt;/div&gt;&lt;div&gt;- var registeredControllerActions: MutableMap&amp;lt;View, PlayerControllerAction&amp;gt;?&lt;/div&gt;" style="text;strokeColor=none;fillColor=none;align=left;verticalAlign=top;spacingLeft=4;spacingRight=4;overflow=hidden;rotatable=0;points=[[0,0.5],[1,0.5]];portConstraint=eastwest;whiteSpace=wrap;html=1;" vertex="1" parent="xxVMOKm8zRHz8Rg9-nGw-14">
          <mxGeometry y="26" width="290" height="64" as="geometry" />
        </mxCell>
        <mxCell id="xxVMOKm8zRHz8Rg9-nGw-16" value="" style="line;strokeWidth=1;fillColor=none;align=left;verticalAlign=middle;spacingTop=-1;spacingLeft=3;spacingRight=3;rotatable=0;labelPosition=right;points=[];portConstraint=eastwest;strokeColor=inherit;" vertex="1" parent="xxVMOKm8zRHz8Rg9-nGw-14">
          <mxGeometry y="90" width="290" height="8" as="geometry" />
        </mxCell>
        <mxCell id="xxVMOKm8zRHz8Rg9-nGw-17" value="&lt;div&gt;+ fun setPlayer(player: Player?)&lt;/div&gt;&lt;div&gt;+ fun invokeControllerAction(clazz: Class&amp;lt;*&amp;gt;)&lt;/div&gt;&lt;div&gt;+ fun setPlayerAttachListener(playerAttachListener: OnPlayerAttachListener)&lt;/div&gt;" style="text;strokeColor=none;fillColor=none;align=left;verticalAlign=top;spacingLeft=4;spacingRight=4;overflow=hidden;rotatable=0;points=[[0,0.5],[1,0.5]];portConstraint=eastwest;whiteSpace=wrap;html=1;" vertex="1" parent="xxVMOKm8zRHz8Rg9-nGw-14">
          <mxGeometry y="98" width="290" height="72" as="geometry" />
        </mxCell>
        <mxCell id="xxVMOKm8zRHz8Rg9-nGw-18" value="&lt;p style=&quot;margin:0px;margin-top:4px;text-align:center;&quot;&gt;&lt;i&gt;&amp;lt;&amp;lt;Interface&amp;gt;&amp;gt;&lt;/i&gt;&lt;br&gt;&lt;/p&gt;&lt;p style=&quot;margin:0px;margin-top:4px;text-align:center;&quot;&gt;&lt;b&gt;&lt;i&gt;PlayerControllerAction&lt;/i&gt;&lt;/b&gt;&lt;br&gt;&lt;/p&gt;&lt;hr size=&quot;1&quot;&gt;&lt;div style=&quot;border-color: var(--border-color);&quot;&gt;&lt;div style=&quot;border-color: var(--border-color);&quot;&gt;&lt;div style=&quot;border-color: var(--border-color);&quot;&gt;+ fun attachToPlayer(player: Player) = Unit&lt;/div&gt;&lt;div style=&quot;border-color: var(--border-color);&quot;&gt;+ fun doAction(context: Context, host: View)&lt;/div&gt;&lt;/div&gt;&lt;/div&gt;" style="verticalAlign=top;align=left;overflow=fill;fontSize=12;fontFamily=Helvetica;html=1;whiteSpace=wrap;" vertex="1" parent="1">
          <mxGeometry x="575" y="245" width="280" height="90" as="geometry" />
        </mxCell>
        <mxCell id="xxVMOKm8zRHz8Rg9-nGw-21" value="&lt;p style=&quot;margin:0px;margin-top:4px;text-align:center;&quot;&gt;&lt;i&gt;&amp;lt;&amp;lt;Interface&amp;gt;&amp;gt;&lt;/i&gt;&lt;br&gt;&lt;b&gt;PlayerDataStore&lt;/b&gt;&lt;/p&gt;&lt;hr size=&quot;1&quot;&gt;&lt;p style=&quot;margin:0px;margin-left:4px;&quot;&gt;+ fun&amp;lt;T&amp;gt; save(name: String, value: T)&lt;/p&gt;&lt;p style=&quot;margin:0px;margin-left:4px;&quot;&gt;+ fun&amp;lt;T&amp;gt; get(name: String, defValue: T): T&lt;/p&gt;" style="verticalAlign=top;align=left;overflow=fill;fontSize=12;fontFamily=Helvetica;html=1;whiteSpace=wrap;" vertex="1" parent="1">
          <mxGeometry x="580" y="785" width="280" height="100" as="geometry" />
        </mxCell>
        <mxCell id="xxVMOKm8zRHz8Rg9-nGw-24" value="Extends" style="endArrow=block;endSize=16;endFill=0;html=1;rounded=0;exitX=0.5;exitY=0;exitDx=0;exitDy=0;" edge="1" parent="1" source="xxVMOKm8zRHz8Rg9-nGw-9" target="xxVMOKm8zRHz8Rg9-nGw-8">
          <mxGeometry width="160" relative="1" as="geometry">
            <mxPoint x="479" y="350" as="sourcePoint" />
            <mxPoint x="639" y="350" as="targetPoint" />
          </mxGeometry>
        </mxCell>
        <mxCell id="xxVMOKm8zRHz8Rg9-nGw-25" value="" style="endArrow=none;html=1;edgeStyle=orthogonalEdgeStyle;rounded=0;exitX=0.5;exitY=1;exitDx=0;exitDy=0;entryX=0.5;entryY=0;entryDx=0;entryDy=0;" edge="1" parent="1" source="xxVMOKm8zRHz8Rg9-nGw-9" target="xxVMOKm8zRHz8Rg9-nGw-12">
          <mxGeometry relative="1" as="geometry">
            <mxPoint x="359" y="690" as="sourcePoint" />
            <mxPoint x="459" y="485" as="targetPoint" />
          </mxGeometry>
        </mxCell>
        <mxCell id="xxVMOKm8zRHz8Rg9-nGw-30" value="" style="endArrow=diamondThin;endFill=0;endSize=24;html=1;rounded=0;exitX=0.025;exitY=0.684;exitDx=0;exitDy=0;exitPerimeter=0;" edge="1" parent="1" source="xxVMOKm8zRHz8Rg9-nGw-22">
          <mxGeometry width="160" relative="1" as="geometry">
            <mxPoint x="200" y="90" as="sourcePoint" />
            <mxPoint x="460" y="249" as="targetPoint" />
          </mxGeometry>
        </mxCell>
        <mxCell id="xxVMOKm8zRHz8Rg9-nGw-31" value="" style="endArrow=diamondThin;endFill=0;endSize=24;html=1;rounded=0;exitX=0.025;exitY=0.684;exitDx=0;exitDy=0;exitPerimeter=0;" edge="1" parent="1">
          <mxGeometry width="160" relative="1" as="geometry">
            <mxPoint x="550" y="579.29" as="sourcePoint" />
            <mxPoint x="461" y="579.29" as="targetPoint" />
          </mxGeometry>
        </mxCell>
        <mxCell id="xxVMOKm8zRHz8Rg9-nGw-32" value="&lt;p style=&quot;margin:0px;margin-top:4px;text-align:center;&quot;&gt;&lt;i&gt;&amp;lt;&amp;lt;Interface&amp;gt;&amp;gt;&lt;/i&gt;&lt;br&gt;&lt;/p&gt;&lt;p style=&quot;margin:0px;margin-top:4px;text-align:center;&quot;&gt;&lt;i&gt;&lt;b&gt;&lt;font style=&quot;font-size: 14px;&quot;&gt;PlayerHandler&lt;/font&gt;&lt;/b&gt;&lt;/i&gt;&lt;/p&gt;&lt;hr size=&quot;1&quot;&gt;&lt;div style=&quot;border-color: var(--border-color);&quot;&gt;&lt;div style=&quot;border-color: var(--border-color);&quot;&gt;+&amp;nbsp;fun release()&lt;br style=&quot;border-color: var(--border-color);&quot;&gt;+ fun trackPlayerEvent(listener: Player.Listener)&lt;br style=&quot;border-color: var(--border-color);&quot;&gt;+&amp;nbsp;fun trackPlayerAnalyticsEvent(listener: AnalyticsListener)&lt;br style=&quot;border-color: var(--border-color);&quot;&gt;+&amp;nbsp;fun removePlayerEvent(listener: Player.Listener)&lt;br style=&quot;border-color: var(--border-color);&quot;&gt;+&amp;nbsp;fun removePlayerAnalyticsEvent(listener: AnalyticsListener)&lt;br&gt;&lt;/div&gt;&lt;div style=&quot;border-color: var(--border-color);&quot;&gt;+ fun getPlayerBuildFactory(): PlayerBuildFactory&lt;/div&gt;&lt;div style=&quot;border-color: var(--border-color);&quot;&gt;+ fun getPlayerView(): StyledPlayerView?&lt;/div&gt;&lt;div style=&quot;border-color: var(--border-color);&quot;&gt;+ fun getPlayerHolder(): PlayerHolder&lt;/div&gt;&lt;div style=&quot;border-color: var(--border-color);&quot;&gt;+ fun getPlayerDataStore(): PlayerDataStore?&lt;/div&gt;&lt;div style=&quot;border-color: var(--border-color);&quot;&gt;+ fun createNewPlayer(context: Context): Player&lt;/div&gt;&lt;/div&gt;" style="verticalAlign=top;align=left;overflow=fill;fontSize=12;fontFamily=Helvetica;html=1;whiteSpace=wrap;" vertex="1" parent="1">
          <mxGeometry x="810" y="920" width="350" height="205" as="geometry" />
        </mxCell>
        <mxCell id="xxVMOKm8zRHz8Rg9-nGw-33" value="&lt;p style=&quot;margin:0px;margin-top:4px;text-align:center;&quot;&gt;&lt;i&gt;# DefaultPlayerHandler&lt;/i&gt;&lt;/p&gt;&lt;hr size=&quot;1&quot;&gt;&lt;div style=&quot;border-color: var(--border-color);&quot;&gt;&lt;div style=&quot;border-color: var(--border-color);&quot;&gt;+&amp;nbsp;fun release()&lt;br style=&quot;border-color: var(--border-color);&quot;&gt;+ fun trackPlayerEvent(listener: Player.Listener)&lt;br style=&quot;border-color: var(--border-color);&quot;&gt;+&amp;nbsp;fun trackPlayerAnalyticsEvent(listener: AnalyticsListener)&lt;br style=&quot;border-color: var(--border-color);&quot;&gt;+&amp;nbsp;fun removePlayerEvent(listener: Player.Listener)&lt;br style=&quot;border-color: var(--border-color);&quot;&gt;+&amp;nbsp;fun removePlayerAnalyticsEvent(listener: AnalyticsListener)&lt;br&gt;&lt;/div&gt;&lt;div style=&quot;border-color: var(--border-color);&quot;&gt;+ fun getPlayerBuildFactory(): PlayerBuildFactory&lt;/div&gt;&lt;div style=&quot;border-color: var(--border-color);&quot;&gt;+ fun getPlayerView(): StyledPlayerView?&lt;/div&gt;&lt;div style=&quot;border-color: var(--border-color);&quot;&gt;+ fun getPlayerHolder(): PlayerHolder&lt;/div&gt;&lt;div style=&quot;border-color: var(--border-color);&quot;&gt;+ fun getPlayerDataStore(): PlayerDataStore?&lt;/div&gt;&lt;div style=&quot;border-color: var(--border-color);&quot;&gt;+ fun createNewPlayer(context: Context): Player&lt;/div&gt;&lt;/div&gt;" style="verticalAlign=top;align=left;overflow=fill;fontSize=12;fontFamily=Helvetica;html=1;whiteSpace=wrap;" vertex="1" parent="1">
          <mxGeometry x="600" y="1210" width="370" height="230" as="geometry" />
        </mxCell>
        <mxCell id="xxVMOKm8zRHz8Rg9-nGw-34" value="" style="endArrow=block;dashed=1;endFill=0;endSize=12;html=1;rounded=0;entryX=0.284;entryY=0.995;entryDx=0;entryDy=0;entryPerimeter=0;" edge="1" parent="1" target="xxVMOKm8zRHz8Rg9-nGw-32">
          <mxGeometry width="160" relative="1" as="geometry">
            <mxPoint x="909" y="1210" as="sourcePoint" />
            <mxPoint x="1155" y="1230" as="targetPoint" />
          </mxGeometry>
        </mxCell>
        <mxCell id="xxVMOKm8zRHz8Rg9-nGw-35" value="&lt;p style=&quot;margin:0px;margin-top:4px;text-align:center;&quot;&gt;RePlayablePlayerHandler&lt;/p&gt;&lt;hr size=&quot;1&quot;&gt;&lt;div style=&quot;border-color: var(--border-color);&quot;&gt;&lt;div style=&quot;border-color: var(--border-color);&quot;&gt;+&amp;nbsp;fun release()&lt;br style=&quot;border-color: var(--border-color);&quot;&gt;+ fun trackPlayerEvent(listener: Player.Listener)&lt;br style=&quot;border-color: var(--border-color);&quot;&gt;+&amp;nbsp;fun trackPlayerAnalyticsEvent(listener: AnalyticsListener)&lt;br style=&quot;border-color: var(--border-color);&quot;&gt;+&amp;nbsp;fun removePlayerEvent(listener: Player.Listener)&lt;br style=&quot;border-color: var(--border-color);&quot;&gt;+&amp;nbsp;fun removePlayerAnalyticsEvent(listener: AnalyticsListener)&lt;br&gt;&lt;/div&gt;&lt;div style=&quot;border-color: var(--border-color);&quot;&gt;+ fun getPlayerBuildFactory(): PlayerBuildFactory&lt;/div&gt;&lt;div style=&quot;border-color: var(--border-color);&quot;&gt;+ fun getPlayerView(): StyledPlayerView?&lt;/div&gt;&lt;div style=&quot;border-color: var(--border-color);&quot;&gt;+ fun getPlayerHolder(): PlayerHolder&lt;/div&gt;&lt;div style=&quot;border-color: var(--border-color);&quot;&gt;+ fun getPlayerDataStore(): PlayerDataStore?&lt;/div&gt;&lt;div style=&quot;border-color: var(--border-color);&quot;&gt;+ fun createNewPlayer(context: Context): Player&lt;/div&gt;&lt;/div&gt;" style="verticalAlign=top;align=left;overflow=fill;fontSize=12;fontFamily=Helvetica;html=1;whiteSpace=wrap;" vertex="1" parent="1">
          <mxGeometry x="1040" y="1210" width="370" height="230" as="geometry" />
        </mxCell>
        <mxCell id="xxVMOKm8zRHz8Rg9-nGw-36" value="&lt;p style=&quot;margin:0px;margin-top:4px;text-align:center;&quot;&gt;&lt;i&gt;&amp;lt;&amp;lt;Interface&amp;gt;&amp;gt;&lt;/i&gt;&lt;br&gt;&lt;/p&gt;&lt;p style=&quot;margin:0px;margin-top:4px;text-align:center;&quot;&gt;&lt;i&gt;&lt;b&gt;&lt;font style=&quot;font-size: 14px;&quot;&gt;ReplayablePlayerHandler&lt;/font&gt;&lt;/b&gt;&lt;/i&gt;&lt;/p&gt;&lt;hr size=&quot;1&quot;&gt;&lt;div style=&quot;border-color: var(--border-color);&quot;&gt;&lt;div style=&quot;border-color: var(--border-color);&quot;&gt;+&amp;nbsp;fun replay()&lt;/div&gt;&lt;/div&gt;" style="verticalAlign=top;align=left;overflow=fill;fontSize=12;fontFamily=Helvetica;html=1;whiteSpace=wrap;" vertex="1" parent="1">
          <mxGeometry x="1220" y="920" width="200" height="79.5" as="geometry" />
        </mxCell>
        <mxCell id="xxVMOKm8zRHz8Rg9-nGw-37" value="" style="endArrow=block;dashed=1;endFill=0;endSize=12;html=1;rounded=0;exitX=0.75;exitY=0;exitDx=0;exitDy=0;entryX=0.5;entryY=1;entryDx=0;entryDy=0;" edge="1" parent="1" source="xxVMOKm8zRHz8Rg9-nGw-35" target="xxVMOKm8zRHz8Rg9-nGw-36">
          <mxGeometry width="160" relative="1" as="geometry">
            <mxPoint x="1216" y="1118" as="sourcePoint" />
            <mxPoint x="1378" y="1004" as="targetPoint" />
          </mxGeometry>
        </mxCell>
        <mxCell id="xxVMOKm8zRHz8Rg9-nGw-38" value="" style="endArrow=block;dashed=1;endFill=0;endSize=12;html=1;rounded=0;exitX=0.205;exitY=-0.004;exitDx=0;exitDy=0;exitPerimeter=0;entryX=0.877;entryY=1.001;entryDx=0;entryDy=0;entryPerimeter=0;" edge="1" parent="1" source="xxVMOKm8zRHz8Rg9-nGw-35" target="xxVMOKm8zRHz8Rg9-nGw-32">
          <mxGeometry width="160" relative="1" as="geometry">
            <mxPoint x="1226" y="1190" as="sourcePoint" />
            <mxPoint x="1226" y="1132.5" as="targetPoint" />
          </mxGeometry>
        </mxCell>
        <mxCell id="xxVMOKm8zRHz8Rg9-nGw-40" value="" style="endArrow=diamondThin;endFill=0;endSize=24;html=1;rounded=0;entryX=0.005;entryY=0.377;entryDx=0;entryDy=0;entryPerimeter=0;exitX=1.005;exitY=0.376;exitDx=0;exitDy=0;exitPerimeter=0;" edge="1" parent="1" source="xxVMOKm8zRHz8Rg9-nGw-33" target="xxVMOKm8zRHz8Rg9-nGw-35">
          <mxGeometry width="160" relative="1" as="geometry">
            <mxPoint x="980" y="1297" as="sourcePoint" />
            <mxPoint x="1030" y="1320" as="targetPoint" />
          </mxGeometry>
        </mxCell>
      </root>
    </mxGraphModel>
  </diagram>
</mxfile>
